<?xml version="1.0" encoding="utf-8"?>
<!-- Generator: Adobe Illustrator 22.1.0, SVG Export Plug-In . SVG Version: 6.00 Build 0)  -->
<svg version="1.1" xmlns="http://www.w3.org/2000/svg" xmlns:xlink="http://www.w3.org/1999/xlink" x="0px" y="0px"
	 viewBox="0 0 78 117" style="enable-background:new 0 0 78 117;" xml:space="preserve">
<style type="text/css">
	.st0{display:none;}
	.st1{display:inline;fill:#FFFFFF;}
	.st2{display:inline;fill:#ED1C24;}
	.st3{display:inline;fill:none;stroke:#FF0000;stroke-width:10;stroke-miterlimit:10;}
	.st4{display:inline;fill:#999999;}
	.st5{display:inline;fill:none;stroke:#999999;stroke-width:10;stroke-miterlimit:10;}
	.st6{fill:url(#Kneck_1_);}
	.st7{display:none;fill:#FFFFFF;stroke:#000000;stroke-miterlimit:10;}
	.st8{font-family:'MyriadPro-Regular';}
	.st9{font-size:45.7275px;}
	.st10{fill:url(#Monitor_1_);}
	.st11{fill:url(#SVGID_1_);}
	.st12{fill:url(#SVGID_2_);}
</style>
<g id="BG" class="st0">
	<rect class="st1" width="80" height="117"/>
</g>
<g id="Layer_1" class="st0">
	<rect x="13.1" y="17.7" class="st2" width="3.2" height="32.3"/>
	<rect x="16" class="st2" width="9" height="31"/>
	<path class="st3" d="M0,118l16.6-71.1c1.1-3.4,4.5-3.9,6.1-0.9l14.8,27.9c1,2,3,2.6,6.1,0.3L74,30"/>
	<ellipse id="Head" class="st4" cx="68.1" cy="10.3" rx="7.3" ry="9.5"/>
	<path class="st5" d="M75,26l-1.1,80.3c-0.1,3.7-2.8,6.7-6.1,6.7h0c-9.3,0-16.8-8.4-16.8-18.7v0"/>
</g>
<g id="Layer_3">
	
		<linearGradient id="Kneck_1_" gradientUnits="userSpaceOnUse" x1="70.6238" y1="22.9286" x2="74.5004" y2="22.9286" gradientTransform="matrix(2.3882 -0.3058 -0.3051 1.8902 -94.6092 1.6943)">
		<stop  offset="0" style="stop-color:#C41010"/>
		<stop  offset="0.1899" style="stop-color:#C41010"/>
		<stop  offset="0.7616" style="stop-color:#750303"/>
	</linearGradient>
	<path id="Kneck" class="st6" d="M74.7,27.5l-1.3,0.6c-0.7,0.3-1.4,0.3-1.5-0.1l-4.1-8.5c-0.2-0.4,0.2-1,0.9-1.3l1.3-0.6
		c0.7-0.3,1.4-0.3,1.5,0.1l4.1,8.5C75.8,26.6,75.4,27.2,74.7,27.5z"/>
	<g class="st0">
	</g>
	<text transform="matrix(0.9567 0 0 1 19.9805 43.8657)" class="st7 st8 st9">s</text>
	<linearGradient id="Monitor_1_" gradientUnits="userSpaceOnUse" x1="41.2643" y1="9.876" x2="17.2653" y2="51.4435">
		<stop  offset="0" style="stop-color:#C41010"/>
		<stop  offset="0.3786" style="stop-color:#C11010"/>
		<stop  offset="0.6791" style="stop-color:#750303"/>
		<stop  offset="0.8251" style="stop-color:#750303"/>
	</linearGradient>
	<path id="Monitor" class="st10" d="M31.9,32.7v-8.1c-2.3-1-5.2-0.4-6.9,1.5c-1.1,1.3-1.1,2.9,0,4.2c3,3.7,13.4,6.4,11.7,12.7
		c-0.7,2.5-2.5,4.7-4.8,5.9c-0.7-1.1-1.4-2.1-2.1-3.2c0.6-0.5,1.5-1,2.1-1.6c2.3-2.5,0-5.2-2.2-6.6c-2.1-1.3-4.5-2.4-6.4-4
		c-1.9-1.6-3.4-4.1-3-6.6c0.4-2.2,2.2-3.9,4.2-4.8c2.3-1,5-1.3,7.5-1.5V0h9.3v32.6H31.9z"/>
	<g>
		<linearGradient id="SVGID_1_" gradientUnits="userSpaceOnUse" x1="34.0228" y1="133.7543" x2="50.2874" y2="24.8067">
			<stop  offset="0.535" style="stop-color:#C41010"/>
			<stop  offset="0.8906" style="stop-color:#750303"/>
			<stop  offset="0.9456" style="stop-color:#750303"/>
		</linearGradient>
		<path class="st11" d="M75.8,25.8c0.3,5.8,0.5,11.6,0.7,17.4c0.4,11.3,0.7,22.7,0.7,34c0,4.8,0,9.6-0.2,14.4
			c-0.2,4.4-0.9,8.7-2,12.9c-0.9,3.6-2.1,7.6-5.1,10c-5,4-10,1-14-2.6c0,0-13.9-12.3-6.1-28.4c6.9-13.2,6.9,7.6,6.9,7.6
			s0.3,8.7,5.3,11.5c0.3,0.1,0.9,0.3,1.6,0.3c5.3,0.4,4.5-6.6,4.6-10c0.1-4.5,0.1-8.9,0.1-13.4c0-10.3-0.2-20.5-0.5-30.8
			c-0.1-2.1-0.1-4.1-0.2-6.2c-2.5,3.7-5,7.3-7.6,11c-4.1,5.8-8.2,11.9-13.5,16.6c-2.1,1.8-4.4,3.9-7.3,2.5c-2.5-1.3-4.2-4.1-5.6-6.4
			c-2.7-4.6-4.6-9.5-7.2-14.1c-0.7-1.2-2.2-0.7-2.5,0.2c-2.1,7.1-3.7,14.5-5.3,21.7c-1.4,6.1-2.7,12.1-3.9,18.2
			c-0.5,2.5-1,4.9-1.5,7.4c-0.3,1.2-0.8,2.5,0.3,3.6c0.9,0.9,2.5,0.9,3.7,0.4c0.1,0,11.9-4.7,11.9-4.7c13.4-5.7,11.7-1.1,10,1.7
			c-0.6,1-1.9,2.2-2.9,3c-4.6,3.5-18.5,13.4-27,13.4c-10.4,0-8.7-6.9-8.7-6.9c0,0,0,0,0-0.1c1.2-5.9,2.5-11.8,3.8-17.6
			c2.2-9.9,4.4-19.8,7-29.6c1-3.7,2-7.4,3.4-10.9c1.9-4.9,3.7-11.9,9-14.3c4.5-2,7.1,3.2,8.9,6.3c0,0,5.8,10.2,9.1,15.2
			c1.1,1.7,3.1,1.8,4.3,0.1c5.9-8,21.2-30.8,21.2-30.8h0c0-0.2,0-0.5,0-0.7c0-0.1-0.1-1.8-0.1-1.8C67.2,25.8,75.8,25.8,75.8,25.8z"
			/>
	</g>
	<linearGradient id="SVGID_2_" gradientUnits="userSpaceOnUse" x1="63.5222" y1="10.7537" x2="77.9521" y2="10.7537">
		<stop  offset="3.630373e-02" style="stop-color:#C41010"/>
		<stop  offset="0.5752" style="stop-color:#960C0C"/>
	</linearGradient>
	<ellipse class="st12" cx="70.9" cy="10.8" rx="7.2" ry="10.8"/>
</g>
</svg>
